<svg width="32" height="32" viewBox="0 0 32 32" fill="none" xmlns="http://www.w3.org/2000/svg">
<rect width="32" height="32" fill="#101010"/>
<g id="Wireframe - 1" clip-path="url(#clip0_0_1)">
<rect width="1280" height="2359" transform="translate(-56 -1362)" fill="#1D1D1D"/>
<rect id="Rectangle 2" x="-56" y="-530" width="1280" height="833" fill="#DCDBD0"/>
<g id="card1">
<rect id="Rectangle 4" x="-24" y="-24" width="292" height="303" rx="8" fill="#CCCBBD"/>
<g id="Frame 1" opacity="0.3">
<g id="Component 1" clip-path="url(#clip1_0_1)">
<path id="Vector" d="M31.1007 19.3724L25.5925 16.5995V16C25.5925 15.7002 25.5238 15.4317 25.3864 15.1944C25.249 14.9571 25.0554 14.776 24.8056 14.6511V14.6136L17.6112 10.3044V6.40749H20.7963V3.22248H17.6112V0H14.3888V3.22248H11.2037V6.40749H14.3888V10.3044L7.19438 14.6136C6.94457 14.7635 6.75098 14.9571 6.61358 15.1944C6.47619 15.4317 6.40749 15.7002 6.40749 16V16.5995L0.899297 19.3724C0.62451 19.4973 0.405933 19.6909 0.24356 19.9532C0.0811862 20.2155 0 20.4965 0 20.7963V30.3888C0 30.8384 0.156126 31.2194 0.468384 31.5316C0.780642 31.8439 1.16159 32 1.61124 32H30.3888C30.8384 32 31.2194 31.8439 31.5316 31.5316C31.8439 31.2194 32 30.8384 32 30.3888V20.7963C32 20.4965 31.9188 20.2155 31.7564 19.9532C31.5941 19.6909 31.3755 19.4973 31.1007 19.3724ZM3.22248 21.7705L6.40749 20.1967V28.7775H3.22248V21.7705ZM16 20.7963C15.1257 20.7963 14.3763 21.1085 13.7518 21.733C13.1272 22.3575 12.815 23.1069 12.815 23.9813V28.7775H9.59251V16.8993L16 13.0773L22.4075 16.8993V28.7775H19.185V23.9813C19.185 23.1069 18.8728 22.3575 18.2482 21.733C17.6237 21.1085 16.8743 20.7963 16 20.7963ZM28.7775 28.7775H25.5925V20.1967L28.7775 21.7705V28.7775Z" fill="black"/>
</g>
</g>
</g>
</g>
<defs>
<clipPath id="clip0_0_1">
<rect width="1280" height="2359" fill="white" transform="translate(-56 -1362)"/>
</clipPath>
<clipPath id="clip1_0_1">
<rect width="32" height="32" fill="white"/>
</clipPath>
</defs>
</svg>
