<svg width="32" height="32" viewBox="0 0 32 32" fill="none" xmlns="http://www.w3.org/2000/svg">
<g id="Frame 1" opacity="0.3">
<g id="Component 1" clip-path="url(#clip0_1_103)">
<path id="Vector" d="M30.3888 0H1.61124C1.16159 0 0.780642 0.156126 0.468384 0.468384C0.156126 0.780642 0 1.16159 0 1.61124V30.3888C0 30.8384 0.156126 31.2194 0.468384 31.5316C0.780642 31.8439 1.16159 32 1.61124 32H30.3888C30.8384 32 31.2194 31.8439 31.5316 31.5316C31.8439 31.2194 32 30.8384 32 30.3888V1.61124C32 1.16159 31.8439 0.780642 31.5316 0.468384C31.2194 0.156126 30.8384 0 30.3888 0ZM28.7775 9.59251H22.4075V16H28.7775V22.4075H22.4075V28.7775H16V22.4075H9.59251V28.7775H3.22248V22.4075H9.59251V16H3.22248V9.59251H9.59251V3.22248H16V9.59251H22.4075V3.22248H28.7775V9.59251ZM9.59251 9.59251H16V16H9.59251V9.59251ZM16 16H22.4075V22.4075H16V16Z" fill="black"/>
</g>
</g>
<defs>
<clipPath id="clip0_1_103">
<rect width="32" height="32" fill="white"/>
</clipPath>
</defs>
</svg>
