<svg width="32" height="32" viewBox="0 0 32 32" fill="none" xmlns="http://www.w3.org/2000/svg">
<g id="Frame 1" opacity="0.3">
<g id="Component 1" clip-path="url(#clip0_1_111)">
<path id="Vector" d="M30.4028 14.5563C30.2623 14.4624 30.1159 14.3862 29.9637 14.3275C29.8115 14.2688 29.6534 14.2394 29.4895 14.2394C29.4192 14.2394 29.3489 14.2453 29.2787 14.257C29.2084 14.2688 29.1499 14.2864 29.103 14.3099C28.9391 14.3568 28.7635 14.392 28.5761 14.4155C28.3888 14.439 28.1897 14.4507 27.9789 14.4507C26.7377 14.4507 25.678 14.0164 24.7998 13.1479C23.9215 12.2793 23.4824 11.2465 23.4824 10.0493C23.4824 10.0258 23.4883 9.98474 23.5 9.92606C23.5117 9.86737 23.5176 9.82629 23.5176 9.80282C23.5176 9.77934 23.5176 9.76174 23.5176 9.75C23.5176 9.73826 23.5176 9.73239 23.5176 9.73239C23.5176 9.30986 23.3712 8.95188 23.0785 8.65845C22.7857 8.36502 22.4286 8.21831 22.007 8.21831C21.9368 8.21831 21.8724 8.22418 21.8138 8.23592C21.7553 8.24765 21.6909 8.26526 21.6206 8.28873C21.4567 8.33568 21.281 8.37676 21.0937 8.41197C20.9063 8.44718 20.7073 8.46479 20.4965 8.46479C19.2553 8.46479 18.1956 8.02465 17.3173 7.14437C16.4391 6.26408 16 5.20188 16 3.95775C16 3.79343 16.0117 3.62324 16.0351 3.44718C16.0585 3.27113 16.0937 3.07747 16.1405 2.8662C16.1639 2.81925 16.1756 2.76643 16.1756 2.70775C16.1756 2.64906 16.1756 2.58451 16.1756 2.51408C16.1756 2.09155 16.0293 1.73357 15.7365 1.44014C15.4438 1.14671 15.0984 1 14.7002 1C14.6768 1 14.6534 1 14.63 1C14.6066 1 14.5831 1 14.5597 1C12.6393 1.18779 10.8595 1.70422 9.22014 2.5493C7.58079 3.39437 6.15223 4.48591 4.93443 5.82394C3.71662 7.16198 2.75644 8.68779 2.05386 10.4014C1.35128 12.1385 1 13.9695 1 15.8944C1 15.9178 1 15.9354 1 15.9472C1 15.9589 1 15.9648 1 15.9648C1 18.0305 1.39812 19.9789 2.19438 21.8099C2.96722 23.6409 4.03278 25.2371 5.3911 26.5986C6.74942 27.9601 8.34191 29.0282 10.1686 29.8028C11.9953 30.6009 13.9391 31 16 31C18.0609 31 20.0047 30.6009 21.8314 29.8028C23.6581 29.0282 25.2506 27.9601 26.6089 26.5986C27.9672 25.2371 29.0328 23.6409 29.8056 21.8099C30.6019 19.9789 31 18.0305 31 15.9648C31 15.9178 30.9941 15.8768 30.9824 15.8415C30.9707 15.8063 30.9649 15.7653 30.9649 15.7183C30.9649 15.4836 30.9122 15.2664 30.8068 15.0669C30.7014 14.8674 30.5667 14.6972 30.4028 14.5563ZM16 27.9718C14.3372 27.9718 12.7799 27.6549 11.3279 27.0211C9.87587 26.4108 8.60539 25.5599 7.51639 24.4683C6.42739 23.3768 5.57846 22.1033 4.96956 20.6479C4.33723 19.1925 4.02108 17.6315 4.02108 15.9648C4.02108 15.9648 4.02108 15.9589 4.02108 15.9472C4.02108 15.9354 4.02108 15.9296 4.02108 15.9296C4.02108 14.5211 4.24356 13.1948 4.68852 11.9507C5.13349 10.7066 5.75409 9.57395 6.55035 8.55282C7.34661 7.53168 8.28337 6.65728 9.36066 5.92958C10.4614 5.20187 11.6557 4.67371 12.9438 4.34507L13.0141 4.30986C13.0609 5.31925 13.2951 6.25821 13.7166 7.12676C14.1148 7.99531 14.6534 8.74648 15.3326 9.38028C16.0117 10.0141 16.7845 10.5188 17.6511 10.8944C18.541 11.27 19.4895 11.4577 20.4965 11.4577H20.637C21.0117 13.1714 21.8665 14.5974 23.2014 15.7359C24.5363 16.8744 26.1054 17.4554 27.9087 17.4789C27.7213 18.9578 27.2764 20.331 26.5738 21.5986C25.8946 22.8897 25.0223 24.0047 23.9567 24.9437C22.8911 25.8826 21.6792 26.6221 20.3208 27.162C18.9625 27.7019 17.5223 27.9718 16 27.9718ZM18.9859 15.2254C18.9859 15.8357 18.7693 16.3638 18.3361 16.8099C17.9028 17.2559 17.37 17.4789 16.7377 17.4789C16.1288 17.4789 15.6019 17.2559 15.1569 16.8099C14.7119 16.3638 14.4895 15.8357 14.4895 15.2254C14.4895 14.5915 14.7119 14.0575 15.1569 13.6232C15.6019 13.189 16.1288 12.9718 16.7377 12.9718C17.37 12.9718 17.9028 13.189 18.3361 13.6232C18.7693 14.0575 18.9859 14.5915 18.9859 15.2254ZM13.0141 10.7183C13.0141 11.3286 12.7916 11.8568 12.3466 12.3028C11.9016 12.7488 11.3747 12.9718 10.7658 12.9718C10.1335 12.9718 9.60071 12.7488 9.16745 12.3028C8.73419 11.8568 8.51756 11.3286 8.51756 10.7183C8.51756 10.0845 8.73419 9.55047 9.16745 9.1162C9.60071 8.68192 10.1335 8.46479 10.7658 8.46479C11.3747 8.46479 11.9016 8.68192 12.3466 9.1162C12.7916 9.55047 13.0141 10.0845 13.0141 10.7183ZM11.5035 16.7042C11.5035 17.338 11.2869 17.8721 10.8536 18.3063C10.4204 18.7406 9.88759 18.9577 9.25527 18.9577C8.62295 18.9577 8.09017 18.7406 7.65691 18.3063C7.22365 17.8721 7.00703 17.338 7.00703 16.7042C7.00703 16.0939 7.22365 15.5657 7.65691 15.1197C8.09017 14.6737 8.62295 14.4507 9.25527 14.4507C9.88759 14.4507 10.4204 14.6737 10.8536 15.1197C11.2869 15.5657 11.5035 16.0939 11.5035 16.7042ZM23.4824 21.2113C23.4824 21.8451 23.2658 22.3791 22.8326 22.8134C22.3993 23.2477 21.8665 23.4648 21.2342 23.4648C20.6253 23.4648 20.0984 23.2477 19.6534 22.8134C19.2084 22.3791 18.9859 21.8451 18.9859 21.2113C18.9859 20.6009 19.2084 20.0728 19.6534 19.6268C20.0984 19.1807 20.6253 18.9577 21.2342 18.9577C21.8665 18.9577 22.3993 19.1807 22.8326 19.6268C23.2658 20.0728 23.4824 20.6009 23.4824 21.2113ZM16 22.7254C16 23.3592 15.7834 23.8932 15.3501 24.3275C14.9169 24.7617 14.3841 24.9789 13.7518 24.9789C13.1194 24.9789 12.5867 24.7617 12.1534 24.3275C11.7201 23.8932 11.5035 23.3592 11.5035 22.7254C11.5035 22.0915 11.7201 21.5575 12.1534 21.1232C12.5867 20.689 13.1194 20.4718 13.7518 20.4718C14.3841 20.4718 14.9169 20.689 15.3501 21.1232C15.7834 21.5575 16 22.0915 16 22.7254Z" fill="black"/>
</g>
</g>
<defs>
<clipPath id="clip0_1_111">
<rect width="30" height="30" fill="white" transform="translate(1 1)"/>
</clipPath>
</defs>
</svg>
