<svg width="32" height="32" viewBox="0 0 32 32" fill="none" xmlns="http://www.w3.org/2000/svg">
<g id="Frame 1" opacity="0.3">
<g id="Component 1" clip-path="url(#clip0_1_119)">
<path id="Vector" d="M12.375 10L9 7.5L12.375 5.0625H23.0312V10H12.375ZM16.0938 3H19.0312V4H16.0938V3ZM19 11.0938L20.125 28.6875C20.125 29.0625 19.9948 29.375 19.7344 29.625C19.474 29.875 19.1667 30 18.8125 30H16.2812C15.9271 30 15.625 29.875 15.375 29.625C15.125 29.375 15 29.0625 15 28.6875L16.0312 11.0938H19ZM17.5938 28.5938C17.8646 28.5938 18.099 28.5 18.2969 28.3125C18.4948 28.125 18.5938 27.8854 18.5938 27.5938C18.5938 27.3229 18.4948 27.0938 18.2969 26.9062C18.099 26.7187 17.8646 26.625 17.5938 26.625C17.3229 26.625 17.0885 26.7187 16.8906 26.9062C16.6927 27.0938 16.5938 27.3229 16.5938 27.5938C16.5938 27.8854 16.6927 28.125 16.8906 28.3125C17.0885 28.5 17.3229 28.5938 17.5938 28.5938Z" fill="black"/>
</g>
</g>
<defs>
<clipPath id="clip0_1_119">
<rect width="14.0312" height="27" fill="white" transform="translate(9 3)"/>
</clipPath>
</defs>
</svg>
